<?xml version="1.0" encoding="utf-8"?>
<!-- Generator: Adobe Illustrator 25.2.3, SVG Export Plug-In . SVG Version: 6.00 Build 0)  -->
<svg version="1.1" id="Layer_1" xmlns="http://www.w3.org/2000/svg" xmlns:xlink="http://www.w3.org/1999/xlink" x="0px" y="0px"
	 viewBox="0 0 1738 1017" style="enable-background:new 0 0 1738 1017;" xml:space="preserve">
<style type="text/css">
	.st0{fill:#EAEAEA;}
</style>
<path class="st0" d="M1738,844.03c0,16,0,32,0,47.99c-2.41,3.17-5.79,3.74-9.41,3.26c-3.45-0.46-5.98-0.05-6.14,4.24
	c-0.11,2.76-2.31,3.41-4.52,3.79c-2.31,0.39-4.65,0.16-6.98,0.27c-5.75,0.26-7.52,2.17-5.93,7.5c1.85,6.2,3.4,12.53,5.97,18.5
	c1.62,3.75,1.26,4.63-3.02,4.83c-4.85,0.24-9.5,1.63-14.34,1.92c-4.04,0.24-6.67,3.76-6.22,7.66c0.36,3.15-0.12,6.29,0.03,9.45
	c0.18,3.78-2.74,4.33-7.92,1.68c-4.75-3.55-5.89-9.51-9.16-14.18c-0.61,2.48,1.52,5.23-0.86,7c-3.68,2.74-7.97,1.33-12.08,1.25
	c0.63,2.39-0.27,4.2-2.97,3.6c-2.86-0.63-3.88,1.09-5.14,2.83c-2.21,2.92-5.28,2.91-8.49,2.52c-1.87-0.23-3.85-1.17-5.55,0.45
	c0.77,5.91,5.05,8.44,9.81,10.52c0.41,0.31,0.74,0.69,1,1.12c0.25,0.48,0.32,0.98,0.22,1.51c-0.6,1.34-1.72,1.97-3.06,2.33
	c-4.89-0.42-9.2,0.44-13.41,3.53c-3.33,2.44-7.74,2.77-11.89,1.02c-5.63-7.63-13.71-6.26-21.53-5.83c-1.42,0.08-2.4,0.96-3.29,1.97
	c-1.23,1.41-2.62,2.53-4.66,2.29c-0.48-0.09-0.94-0.26-1.36-0.51c-1.43-3-3.73-4.36-7.11-4.1c-3.36,0.27-6.58-0.43-9.85-2.26
	c2.03,3.42,1.29,6.34-0.76,9.08c2.33,1.84,5.12,0.45,7.59,1.15c1.63,0.46,3.64,0.76,3.83,2.65c0.23,2.29-2.06,2.38-3.56,2.51
	c-3.11,0.27-5.75,1.18-8.04,3.42c-1.61,1.57-3.97,1.49-6.1,1.9c-9.15,1.75-18.28,0.18-27.41-0.04c-3.33-0.08-6.56-0.26-8.68,3.39
	c-1.26,2.16-3.94,2.25-6.33,2.17c-7.66-0.28-15.17-0.3-22.63,2.45c-4.69,1.73-9.93,0.1-14.86-0.36c-6.18-0.57-12.28-0.9-18.42,0.1
	c-0.99,0.16-1.99,0.21-2.99,0.18c-24.49-0.58-48.95,1.56-73.44,1.07c-20.96-0.42-41.91-0.9-62.86-1.44
	c-10.45-0.27-20.94-0.47-31.41-0.54c-14.48-0.1-29,0.39-43.44-0.22c-24.6-1.04-49.2-2.07-73.8-3.14c-13.39-0.58-26.93-1.5-40.37,0
	c-8.82,0.98-17.62-0.05-26.42,0.08c-17.16,0.24-34.3,0.97-51.44,1.45c-29.96,0.84-59.92,2.53-89.89,1.67
	c-29.81-0.86-59.6,1.1-89.39,0.08c-17.98-0.62-35.96-0.05-53.9,0.42c-22.94,0.6-45.87,2.32-68.8,3.39
	c-25.78,1.2-51.43,4.07-77.21,5.43c-26.44,1.4-52.88,1.67-79.34,1.87c-19.49,0.15-39.02,0.65-58.45-0.31
	c-21.47-1.07-42.94-0.39-64.42-1.39c-22.41-1.04-44.91-0.3-67.33,1.34c-5.16,0.38-10.34-0.06-15.44-0.34
	c-17.16-0.93-34.29,0.38-51.4,0.04c-23.16-0.46-46.33,0.44-69.46-0.59c-17.46-0.78-34.97-0.48-52.39-1.9
	c-15.92-1.29-31.87-2.24-47.8-3.43c-10.8-0.81-21.54-3.18-32.28-2.87c-10.19,0.29-20.26-1.08-30.42-0.69
	c-7.62,0.3-14.87-1.59-21.43-5.67c-2.73-2.54-3.99-6.89-9-6.71c-1.45,0.05-2.26-1.87-1.82-3.53c0.46-1.71,1.65-2.29,3.43-1.91
	c1.48,0.32,2.92,1.79,4.58,0.34c-6.62-4.02-12.92-8.85-21.41-6.76c-8.45-1.04-9.51-3.8-5.01-12.97c0.91-4.21-0.42-6.49-4.31-6.88
	c-3.11-0.31-6.25-0.24-9.38-0.17c-0.9,0.09-1.8,0.05-2.69,0.02c-1.88,0.03-3.86-0.63-5.54,0.8c-0.33,0.3-0.69,0.57-1.08,0.8
	c-0.61,0.36-1.25,0.58-1.96,0.62c-0.47-0.02-0.92-0.14-1.35-0.34c-1.24-0.83-1.74-2.11-2.1-3.47c-0.4-1.61-1.96-2.36-2.75-3.69
	c-0.14-0.46-0.13-0.91,0.03-1.36c2.56-4.96,5.82-9.66,5.55-15.63c-0.11-6.3,2.56-12,4.07-17.92c1.36-5.34,1.41-9.82-3.3-13.45
	c-2.2-1.69-2.41-3.87-1.15-6.23c3.89-7.27,3.75-14.86,2.79-22.85c-1.36-11.39-3.88-22.97-2.5-34.28
	c1.48-12.15-3.16-23.63-1.67-35.61c1-8.05,0.66-16.26,2.28-24.27c1.13-5.6-0.59-11.13,0.4-16.87c4.12-23.99,4.69-48.22,3.61-72.51
	c-0.39-8.69-2.04-17.15-3.68-25.65c-1.33-6.86-2.66-13.69-3.07-20.73c-0.39-6.79-1.3-13.56-2.74-20.28
	c-3.47-16.15-4.09-32.68-6.18-49.02c-1.48-11.56-2.97-23.12-3.36-34.74c-0.54-15.78-1.52-31.54-1.89-47.33
	c-0.32-13.78,0.35-27.69-1.8-41.34c-3.38-21.4-3.47-43.04-5.44-64.53c-1.05-11.4-0.03-23.06-3.11-34.23
	c-6.64-24.08-7.47-48.69-6.5-73.34c0.86-21.73-0.05-43.53,1.62-65.18c0.85-11.04-0.25-22.17,2.27-33.24
	c1.66-7.31,0.4-15.24,0.65-22.9c0.37-11.32,1.16-22.53,3.97-33.59c4.06-15.96,9.51-31.51,13.28-47.55
	c1.6-6.79,5.06-12.64,10.33-17.34c3.34-2.98,7.05-4.53,11.66-4.92c7.11-0.6,13.79-2.15,19.36-7.81c4.24-4.32,10.15-7.01,16.71-6.65
	c4.8,0.26,8.07-1.78,9.68-6.23c1.08-2.97,3.27-4.95,5.45-7.02c1.31-1.24,2.77-1.88,4.54-1.33c2.04,0.63,2,2.41,2.1,4.09
	c0.37,5.79,1.78,7.13,7.55,6.77c3.15-0.2,6.29-0.76,9.46-0.55c4.19,0.28,3.82-4.07,5.95-5.88c1.32-1.35,1.85-3.31,3.45-4.45
	c6.39-1.59,12.85-2.55,19.4-1.18c1.97,0.41,3.86,0.76,5.87,0.57c9.84-0.91,19.49,0.22,28.97,2.9c1.29,0.27,2.59,0.65,3.81-0.21
	c2.34-1.63,4.34-0.82,6.86,0.13c4.87,1.82,10.04,3.01,15.25,3.4c5.92,0.44,7.65-4.01,9.06-8.6c3.68-4.56,5.52-5.25,10.7-3.3
	c4.29,1.61,8.67,2.07,13.19,2.36c12.59,0.82,25.07,2.55,36.94,7.06c8.37,3.17,16.85,1.74,25.22,0.99
	c18.41-1.65,36.64-5.05,55.07-6.42c19.26-1.43,38.45-3.52,57.71-4.89c21.91-1.56,43.89-2.11,65.75-4.45
	c3.16-0.34,6.32-0.4,9.49-0.31c12.84,0.37,25.63-1.36,38.42-1.26c14.02,0.11,27.85-2.04,41.87-1.89c26.47,0.28,52.91-1.4,79.36-2.29
	c23.94-0.81,47.88-1.53,71.85-1.62c27.31-0.1,54.62-1.69,81.93-0.88c21.63,0.65,43.29,0.45,64.9,1.75
	c9.98,0.6,19.99-0.01,29.98,0.14c27.12,0.42,54.27-0.47,81.37,1.1c15.29,0.89,30.58-0.39,45.83,0.05
	c26.81,0.77,53.62,1.33,80.42,0.75c23.16-0.5,46.27,0.52,69.37,1.38c18.77,0.7,37.56,1.93,56.32,3.23
	c10.61,0.74,21.31,0.28,31.9,1.51c23.51,2.73,47.2,1.94,70.78,3.66c17.25,1.26,34.56,1.97,51.88,2.52
	c25.29,0.79,50.58,1.72,75.88,1.79c14.14,0.04,28.31-0.24,42.43-0.12c18.82,0.16,37.61-0.71,56.35-1.45
	c15.35-0.6,30.09,2.82,45.16,3.46c4.89,0.21,9.35,2.34,14.08,3.29c2.86,0.58,4.39,2.75,5.21,5.52c1.25,4.21,0.65,8.27-0.89,12.23
	c-1.39,3.59-0.4,5.36,3.55,5.43c1.49,0.03,2.98,0.31,4.45,0.5c1.11,0.05,2.52,0.73,3.32-0.08c2.77-2.8,4.18-0.3,5.9,1.24
	c0.82,0.32,1.67,0.53,2.51,0.77c3.01,0.98,5.09,2.3,1.49,5.27c2.54,1.94,5.76,1.57,7.7,3.9c3.18,3.81,5.71,7.68,3.44,12.95
	c-0.86,1.99-1.04,4.15-0.64,6.31c-0.02,1.03-0.33,2.08,0.25,3.08c0.77,2.23-0.1,4.18-0.96,6.17c-2.38,5.46-2.21,10.51,0.91,15.95
	c2.66,4.63,3.02,10.21,2.77,15.63c0.11,0.46,0.15,0.92,0.16,1.38c-0.38,2.28-0.58,4.54,0.6,6.68c3.14,11.75,4.87,23.7,5.61,35.86
	c0.38,6.27,0.77,12.53,2.08,18.8c1.65,7.92,1.9,16.18,1.53,24.33c-0.37,8.01,0.97,15.81,2.11,23.68c1.1,7.57,2.6,15.11,3,22.76
	c0.31,6.01,1.06,11.94,1.91,17.87c0.68,11.08,4.8,21.55,5.75,32.57c0.13,1.46,1.06,2.37,1.79,3.45c0.24,0.39,0.41,0.81,0.53,1.25
	c0.16,1.43-0.45,2.96,0.54,4.3c0.17,0.4,0.26,0.82,0.27,1.26c-0.76,2.3-0.2,4.68-0.42,7.01c-0.05,0.44-0.15,0.87-0.26,1.3
	c-0.18,3.96-1.1,7.88-0.57,11.86c0.32,0.33,0.59,0.68,0.86,1.03c0.43,0.55,0.79,1.14,1.09,1.76c0.77,1.55,0.87,3.21,0.51,4.84
	c-0.75,3.47,1.13,5.74,3.55,7.58c1.44,1.09,3.76,1.8,2.66,3.96c-1.05,2.05-3.37,1.58-5.34,0.97c-0.43-0.13-0.79-0.55-1.36-0.36
	c0.59,3.23,0.35,6.58,1.47,9.74c0.09,0.45,0.11,0.91,0.1,1.37c-0.02,0.22-0.05,0.45-0.06,0.67c-0.43,1.31,0.03,2.59,0.19,3.88
	c0.06,0.44,0.07,0.88,0.06,1.32c-0.06,1.53,0.52,2.91,1.06,4.27c0.18,0.31,0.36,0.64,0.55,0.94c0.43,0.36,0.96,0.43,1.51,0.43
	c0.86,0.02,1.65,0.23,2.29,0.86c1,1.72,0.38,3.19-0.86,4.41c-1.95,1.92-2.25,4.24-1.89,6.77c0.1,0.44,0.14,0.89,0.14,1.33
	c-0.2,1.92-0.72,3.83,0.04,5.75c0.17,0.41,0.3,0.82,0.42,1.24c0.78,1.86-0.26,3.89,0.56,5.74c0.25,0.36,0.47,0.72,0.71,1.08
	c1.08,1.42,1.28,3.04,0.77,4.67c-0.76,2.4,0.37,4.11,1.86,5.73c1.65,3.79,1.92,7.92,1.23,11.75c-1.72,9.57,1.26,18.76,1.64,28.14
	c0.23,5.64,0.59,11.18-0.07,16.85c-0.67,5.71,1.44,11.61-0.06,17.27c-1.1,4.13-0.85,8.6,1.29,11.29c3.41,4.28,4,8.79,4.74,13.72
	c0.82,5.51,0.77,5.92-5.02,6.13c-0.57,2.62,0.41,5.2,0.41,7.81c0.14,0.68,0.22,1.38,0.38,2.06c0.09,0.46,0.12,0.93,0.11,1.4
	c-0.41,3.33,0.65,6.42,1.18,9.64c0.97,5.96,2.23,11.95,2.43,18.03c0.07,2.2-0.33,4.36-3.06,4.98c-2.41,0.55-2.52,2.27-2.11,4.23
	c0.14,0.43,0.25,0.87,0.37,1.31c0.15,0.43,0.25,0.87,0.35,1.31c1.35,3.49,1.19,7.07,0.58,10.66c0,1.12-0.02,2.24,0.03,3.36
	c-0.04,0.97-0.01,1.93,0.76,3.08c2.18-2.4,1.31-6.28,4.14-8.14c3.7-0.11,5.95,0.55,3.33,4.94c-0.97,1.62-0.2,3.86-0.49,5.8
	c-0.06,0.5-0.16,0.98-0.3,1.46c-0.78,4.17,1.02,7.98,1.51,11.9c1.09,8.75,3.39,17.6,1.48,26.54c-0.36,1.69-0.86,3.19,0.46,4.63
	c1.93,3.86,2.41,7.88,1.76,12.15c-0.5,3.29-0.5,6.65-0.18,9.97c0.18,1.81,0.41,3.78,2.63,4.38c3.32,0.9,3.59,3.42,3.64,6.26
	c0.11,5.52-2.03,10.76-1.62,16.35c1.52,20.77,1.17,41.6,1.53,62.39c0.23,12.99,3.48,25.32,4.75,38.01
	c0.92,9.22,3.97,17.77,6.23,26.61c2.46,9.59,4.26,19.46,5.83,29.3C1737.15,842.29,1737.28,843.25,1738,844.03z M1709.06,535.7
	c-0.15,2.14,0.3,4.61-1.15,6.22c-3.17,3.53-2.21,7.57-2.51,11.65c-0.33,4.63,3.36,8.32,2.26,12.92c-0.1,2.35-2.37,2.11-3.63,3.07
	c-0.33,0.32-0.56,0.69-0.69,1.13c0.02,2.02,0.49,3.65,3.03,3.46c-0.07-0.66,0.55,0.49-0.03,0.25c-2.4-0.08-3.85,0.83-3.71,3.43
	c0.28,0.59,0.76,0.98,1.32,1.29c0.9,0.41,1.29,1.36,2.04,1.93c1.32,0.5,2.64,1,4,1.51c-3.63,2.65-1.32,6.38-2,9.49
	c1.45-3.95,0.88-9.32,6.99-10c3.14-1.91,1.78-4.66,1.2-7.13c-2.15-9.29-2.59-18.56-0.2-27.87c-0.45-2.45,1.19-5.34-1.56-7.32
	c-0.44-0.32-0.93-0.52-0.15-1.41c2.62-3,2.52-3.09-1.29-5.26C1709.81,531.16,1709.24,533.3,1709.06,535.7z M1716.01,531.08
	c-2.85-0.06-3.17-3.91-6-4.01c-0.16,1.44,0.39,2.99-0.39,4c-3.07,0-5.84,0-8.61,0c-1.42,3.02-1.3,6.07-0.37,9.21
	c2.22,7.46,3.22,15.08,3.42,23.15c-7.27-1.3-6.26,2.62-5.06,6.65c0.32,0.35,0.68,0.65,1,1l0,0c1.76,1.37,2.87,0.12,4-1.01
	c1.38-1.48,4.76,0.39,5-2.99c2.91-3.61-0.92-5.68-1.87-8.44c-3.08-8.9,4.19-16.39,3.63-25c-0.01-0.14,1.46-0.37,2.23-0.56
	C1714.06,532.52,1716.79,534.46,1716.01,531.08z M1707.1,594.21c1.48,3.32-2.24,7.51,2.35,10.57c2.02,1.35-0.87,4.73,0.01,7.52
	c2.13,6.78,2.94,13.74-0.06,20.61c-0.69,1.57,0.38,2.45,1.6,3.15c1.08-2.46,0.41-5.62,3.24-8.18c1.04,3.23,1.99,5.97,4.2,8.3
	c2.96-2.8,2.79-6.06,2.3-9.3c-0.57-3.74-1.16-7.35-1.17-11.26c-0.01-4.65,0.68-9.7-1.04-14.34c-0.51-1.37-1.08-3.02-2.94-2.95
	c-1.9,0.08-1.36,1.94-1.86,3.05c-0.66,1.46-0.29,2.83-0.09,4.33c0.9,6.93,2.57,13.89-0.52,20.95c-1.02-11.65-3.02-23.13-5.12-34.6
	C1707.68,592.79,1706.88,593.72,1707.1,594.21z M1656.76,88.7c-1.3,3.94-3.05,7.73-1.22,12.58c2.3,6.09,5.75,12.24,4.33,19.32
	c-0.08,0.41,0.73,1.01,1.13,1.52c1.66-6.81,2.39-13.79,4.45-20.56c1.09-3.59,1.36-7.89-1.49-11.34c-1.96-2.38-3.97-4.72-5.96-7.08
	C1657.97,85.09,1657.38,86.83,1656.76,88.7z M1674.22,944.11c-0.43-6.21-3.7-5.35-8.17-4.55c0.65,1.1,0.91,1.89,1.45,2.39
	c1.42,1.31,2.63,2.76,1.79,4.74c-0.84,1.98-2.85,1.27-4.42,1.31c-3.15,0.09-6.3,0.03-9.52,0.03c-0.19,1.39,2.35,1.7,1.18,3.19
	c-0.34,0.43-1.38,0.86-1.71,0.65c-3.95-2.46-5.03,1.1-6.82,3.15c10.63-1.6,21.28-2.44,32-1
	C1677.44,951.06,1674.48,947.86,1674.22,944.11z M1605.18,48.39c-0.1,0.67,0.34,1.25,0.82,1.74c2.77,0.33,5.54,0.76,8.33,0.94
	c1.52,0.1,4.4,0.31,3.78-1.65c-0.93-2.97,0.72-5.12,0.89-7.65c0.53-7.98-1.4-9.85-8.99-8.63
	C1606.99,37.78,1606.01,43.06,1605.18,48.39z M1613.05,971.61c-7.43,0.91-16.14-4.95-22.25,3.72c-0.42,0.59-1.84,0.47-2.8,0.68
	c4.24,2.48,8.93,2.27,13.18,0.91c2.15-0.68,3.47-2.09,5.43,0.06c1.29,1.41,2.99,1.02,4.65,0.46c2.3-0.78,4.58-0.6,6.75,0.56
	C1617.74,974.71,1613.81,971.52,1613.05,971.61z M117,963.48c-0.51,1.95-2.05,4.58,1.27,5.26c2.47,0.51,6.28,1.7,6.8-2.26
	c0.3-2.31,1.37-1.35,2.12-1.4c1.07-0.07,2.4-0.53,3.19,0.7c2.5,3.91,2.7,3.99,8.16,2.17c-3.59-1.26-5.13-2.88-0.81-4.95
	c-3.56-2.67-7.12-1.58-10.35-0.89c-4.59,0.98-4.24-5.38-8.59-4.92C118.91,959.45,117.56,961.33,117,963.48z M1610,33.13
	c-0.35-0.32-0.69-0.65-1-1c-5.78-1.91-9.5-0.5-8.73,3.55c0.47,2.51,0.23,4.82,0.15,7.24c-0.13,3.88,1.55,6.49,5.58,7.21
	C1606.73,44.32,1609.75,39.05,1610,33.13L1610,33.13z M1648.99,54.54c-0.92,1.37-3.97-0.5-3.41,2.43c0.42,2.2,2.04,2.98,4.34,3.22
	c5.86,0.63,9.46,6.26,8.32,11.98c-0.58,2.91-2.64,5.91-0.25,8.95c0.52-4.1,1.59-8.11,2.42-12.13c2.13-10.38-3.48-16.92-14.41-15.87
	C1647,53.6,1648,54.07,1648.99,54.54z M1635.2,63.21c-0.54-1.47-2.64-1.27-4.09-0.87c-1.64,0.45-3.11,0.63-4.83,0.11
	c-2.6-0.79-4.1,0.37-4.28,3.21c-0.16,2.61,1,3.69,3.53,3.47c4.01-0.35,7.91,0.5,11.85,0.99c5.92,0.74,6.58-0.18,4.59-6.83
	C1639.51,67.4,1637.24,68.71,1635.2,63.21z M1550.05,35.2c8.73,0,17.45,0,26.18,0c-4.2,2.99-9.02,0.85-13.12,3.12
	c7.04,0.33,14.59,3.34,21.6-5.18c-12.44-1.16-23.57,0-34.68,0.09C1550.04,33.88,1550.05,34.54,1550.05,35.2z M1582.03,971.02
	c-3.41-0.22-7.12,0.89-10.02-1.79c-1.26-1.16-2.3-2.81-4-1.01c-1.47,1.57-0.31,3.56,0.79,4.35c3.28,2.34,0.98,3.25-0.79,4.44
	c6.32-0.54,12.76,1.11,19-1.01C1588.2,971.5,1585.15,971.22,1582.03,971.02z M81.02,985.58c-0.41,0.12-1.47-0.83-1.65-1.45
	c-0.19-0.63,0.12-1.7,0.6-2.16c0.73-0.7,1.48,0.03,2.11,0.57c0.38,0.32,0.74,0.71,1.18,0.9c1.73,0.76,3.56,1.09,5.13-0.16
	c1-0.79,0.78-2.18,0.4-3.25c-0.79-2.23-2.7-2.1-4.56-1.87c-0.8,0.1-1.59,0.31-2.73,0.53c0.08-5.07-3.62-5.32-7.04-5.6
	c-3.12-0.25-6.28-0.07-9.42-0.07c4.47,2.2,9.82-0.03,14.12,2.75c-0.29,1.78,0.01,4.07-0.99,5.19c-2.66,2.98-0.83,4.51,1.44,5.74
	c3.03,1.65,6.27,2.9,9.42,4.32C87.2,988,85.91,984.22,81.02,985.58z M1727.59,866.7c-0.37-1.12-0.28-2.36-1.78-2.53
	c-1.59-0.18-1.03,1.32-1.5,2.04c-2.44,3.77-1.48,8.16-2.18,12.24c-0.23,1.36,0.91,2.52,2.2,3.02c1.53,0.59,3.52-0.04,3.97-1.15
	c1.29-3.16,4.95-5.03,4.91-8.95c-2.68-0.75-3.8,3.75-7.03,1.4C1727.66,870.88,1728.35,869.03,1727.59,866.7z M44.19,60
	c-3.44,5.55-5.75,11.65-6.07,18.3c-0.06,1.23,0.54,2.42,1.95,2.41c1.25-0.01,1.18-1.09,1.34-2.16c1.04-7.11,4.27-13.26,8.95-18.94
	C48.04,58.91,45.26,58.28,44.19,60z M188.21,26.47c0.9-0.8,2.22-1.83,3.04-0.99c3.74,3.85,9.02,2.48,13.4,4.24
	c7.33,2.94,12.24,0.06,14.39-7.59c-2.83,0.38-2.52,6.01-6.35,4.18c-3.25-1.56-6.12-1.06-9.11,0.13c-2.26,0.9-5.43,1.64-6.74,0.39
	c-4.67-4.44-8.61-2.13-12.8,0.31C185.75,28.96,186.97,27.57,188.21,26.47z M1658.42,360.48c0.02-0.3-0.98-0.94-1.49-0.93
	c-1.19,0.03-1.62,0.92-1.55,2.05c0.41,6.85,1.29,13.59,4.82,20.88C1662.73,374.03,1658.03,367.51,1658.42,360.48z M62.5,958.78
	c-1.75-1.87-0.89-5.97-5.07-5.79c-3.79,0.17-7.59,0.03-11.38,0.02c0.8,0.53,2.36,1.26,2.28,1.57c-1.26,4.92,2.48,3.14,4.52,3.38
	c1.78,0.21,3.63-0.13,5.39,0.14c2.06,0.32,3.92,1.14,2.82,3.9C63.1,961.62,63.62,959.99,62.5,958.78z M1693.74,382.54
	c-3.82,2.21-3.12,5.3-1.75,8.54c0.41-2.4,2.31-1.85,3.9-2.02c4-0.43,5.49-3.75,2.97-6.93c-0.99-1.25-2.56-2.05-3.87-3.05
	C1694.98,380.39,1695.05,381.79,1693.74,382.54z M1682.18,299.2c0.89,3.68-0.99,8.54,3.82,10.9c-1.58-9.29-4.23-18.35-5.87-27.65
	c-0.51-2.86,0.67-7.25-3.11-9.36C1678.69,281.81,1680.09,290.58,1682.18,299.2z M48.82,939.48c0.58-0.52,1.16-5.36-2.05-7.11
	c-4.27,6.75-4.97,12.74-1.13,14.71C45,943.33,46.58,941.49,48.82,939.48z M1700,582.06c2.92,0.11,3.59-1.47,3-3.99
	c0.67-5.72,6.79,0.33,8.36-3.59c-1.66-3.15-7.47,1.28-7.36-4.41c-1.33,0.34-2.67,0.67-4,1.01
	C1699.78,574.73,1701.59,578.4,1700,582.06z M129.04,24.14c-3.15-2.35-6.64-0.25-9.96-0.67c-1.44-0.18-2.06,1.45-1.91,2.89
	c0.16,1.53,1.17,1.48,2.49,1.47c2.46-0.01,5-1.19,7.39,0.3C128.81,27.34,129.12,25.84,129.04,24.14z M47.91,641.85
	c-0.76-1.29-1.74-2.07-3.18-0.88c-1.06,0.89-2.09,2.03-0.79,3.3c1.67,1.64,2.06,3.6,2.35,5.77c0.16,1.21,1.19,2,2.55,1.79
	c1.5-0.23,1.79-1.23,1.33-2.81C50.32,646.54,49.27,644.14,47.91,641.85z M1665.18,398.4c-2.54-4.7-0.67-11-4.88-15.1
	C1661.11,388.63,1658.15,395.32,1665.18,398.4z M171.95,962.13c-5.12,0.34-1.06,4.91-3.02,7.01c-0.95,1.03,0.91,1.82,2.06,1.77
	c4.08-0.17,5.39-2.04,3.21-5.26C175.21,962.79,173.81,962.01,171.95,962.13z M1689.01,372.09c3.94-1.24,4.74,5.85,9.24,3.46
	c-1.02-2.28-1.58-4.71-3.56-6.37c-0.9-0.75-1.4-4.06-3.09-0.31c-0.38,0.85-2.4-0.08-2.6-1.78
	C1685.62,368.76,1689.65,370.42,1689.01,372.09z M1724,884.47c-1.28,0.8-1.68,3.02-0.01,4.34c3.5,2.77,5.7,0.04,8.52-2.57
	C1729.71,884.03,1726.98,882.61,1724,884.47z M63.99,943.61c0.73,0.04,1.6-0.98,2.21-1.68c0.15-0.17-0.43-1.44-0.75-1.47
	c-3.7-0.4-7.53-1.42-10.68,2.14C57.84,942.96,60.9,943.45,63.99,943.61z M1700,586.06c0.13,0.64,0.26,1.28,0.38,1.93
	c0.24,1.32-0.78,3.4,1.39,3.61c2.09,0.2,2.51-1.76,2.72-3.42c0.3-2.42,2.07-4.52,1.52-7.12c-0.29-1.01,1.49-2.72-1.01-3
	C1702.13,579.98,1703.21,584.36,1700,586.06z M1621.96,55.85c5.96,4.18,10.53-0.01,14.98,0.48
	C1632.48,54.89,1628.01,54.83,1621.96,55.85z M1284,27.51c1.07-1.77-1.6-2.91-3.36-3.22c-2.53-0.44-5.07-0.46-4.68,3.77
	C1278.73,27.36,1281.91,30.97,1284,27.51z M36.04,933.01c-3.26,4.93-5.88,10.13-6.99,16C33.58,944.64,35.15,938.98,36.04,933.01z
	 M51.79,681.07c2.1-1.27,0.58-5.16-0.88-7.95c-1.5,1.2-2.65,2.11-4.91,3.92C49.99,676.71,48.21,683.24,51.79,681.07z M1703,578.07
	c-0.82,1.47-1.24,3.24-3,3.99c0,1.33,0,2.67,0,4c1.57,0.69,3.12,1.63,3.53-1.26c0.32-2.27,0.96-4.49,1.46-6.74
	C1704.33,578.07,1703.67,578.07,1703,578.07z M1644,973.01c3.67-1.27,8.15,0.06,11.23-3.12c-3.83-4.21-6.17,0.69-9.22,1.12
	C1645.34,971.67,1644.67,972.34,1644,973.01z M1680.43,335.34c3.26,0.23,4.64,0.62,5.57,1.76c1.69-4.66-0.26-9.33,0.01-14
	C1683.07,326.53,1688.01,332.33,1680.43,335.34z M1624.88,940.84c3.13,0,6.05,0,9.67,0
	C1631.46,937.71,1628.47,937.82,1624.88,940.84z M1528.69,36.9c3.53-2.77,6.27,0.76,8.85-1.72
	C1534.19,32.17,1531.87,32.27,1528.69,36.9z M1255.73,25.37c-4.52,0-8.04,0-12.63,0C1247.76,28.2,1251.25,26.96,1255.73,25.37z
	 M1722.51,860.2c0.2,0.44,1.62,0.82,2.09,0.55c2.26-1.32,1.5-3.1,0.39-5.28C1722.45,856.54,1721.5,858.03,1722.51,860.2z
	 M1693.92,409.95c-1.24,2.66-0.25,4.65,2.08,6.13c-0.07-2.25-0.84-4.41-0.15-6.79c0.61-2.08-0.2-3.96-2.85-4.21
	C1694.14,406.55,1694.79,408.07,1693.92,409.95z M1686.01,323.1c4.92-2.1,2-5.17,0.99-8
	C1684.03,317.44,1686.54,320.46,1686.01,323.1z M1641.16,49.21c0.36,1.65,0.54,3.12,1.85,3.92c0.24-2.59,1.08-5.52-3.22-5.54
	c-0.92,1.5-1.86,3.02-2.79,4.54C1639.2,52.7,1639.76,50.67,1641.16,49.21z M1518.52,990.16c-2.34-1.69-4.55-1.2-7.34-0.75
	C1513.53,992.89,1515.79,991.85,1518.52,990.16z M37.04,955.02c1.83-0.05,2.58,2.64,4.91,1.74c-0.6-1.46-0.27-2.77,1.09-3.74
	C41.01,953.57,38.12,951.56,37.04,955.02z M1693,405.09c0.16-2.4,3.2-5.22-0.99-7.01C1693.81,400.21,1690.16,403.11,1693,405.09z
	 M1690.99,378.09c1.14-2.6-0.27-4.35-1.98-6C1687.94,374.66,1689.08,376.51,1690.99,378.09z M1692.01,398.08
	c0.17-2.33,2.07-4.66-0.01-6.99C1691,393.42,1690.15,395.75,1692.01,398.08z M1687,315.1c-0.2-1.69,0.58-3.58-1-5
	C1683.65,312.3,1684.45,313.87,1687,315.1z M1661,129.12c-0.66-2.33,1.3-4.67,0.01-7C1659.99,124.45,1659.16,126.79,1661,129.12z
	 M33.04,952.01c-0.88-1.6-2-2.89-3.99-3c1,1,1.99,2,2.99,3.01C32.37,952.62,32.71,952.62,33.04,952.01z M34.05,956.01
	c-0.33-1.33-0.67-2.66-1-3.99c-0.33,0-0.67,0-1,0C32.19,953.6,31.49,955.63,34.05,956.01z M1709.52,629.9
	c-0.07-0.18-0.46-0.23-0.71-0.34c-0.11,0.25-0.36,0.55-0.29,0.74c0.07,0.18,0.46,0.25,0.72,0.37
	C1709.35,630.39,1709.59,630.08,1709.52,629.9z M1690.91,379.78c0.36-0.23,0.73-0.47,1.09-0.7c-0.34-0.33-0.67-0.66-1.01-0.99
	C1690.97,378.66,1690.94,379.22,1690.91,379.78z M35.04,956.02c1.58,1.47,1.76,0.17,2.01-1.01
	C36.38,955.35,35.71,955.69,35.04,956.02z M1700,529.07c0.33,0.67,0.67,1.33,1,2C1700.67,530.4,1700.33,529.73,1700,529.07z
	 M1699,570.07c0.33,0.33,0.67,0.66,1,1C1699.67,570.73,1699.33,570.4,1699,570.07z M1689,367.09c0.12-0.1,0.35-0.23,0.33-0.28
	c-0.08-0.25-0.22-0.47-0.34-0.7C1688.99,366.43,1689,366.76,1689,367.09z M1686,337.09c0.33,0.33,0.67,0.67,1,1
	C1686.67,337.76,1686.33,337.43,1686,337.09z M1645,970.02c0.34,0.33,0.67,0.66,1.01,0.99
	C1645.67,970.68,1645.33,970.35,1645,970.02z M1609,32.13c0.33,0.33,0.67,0.67,1,1C1609.67,32.8,1609.34,32.47,1609,32.13z
	 M1717.24,527.6c-1.8-6.96-1.55-13.98-0.57-21.04c0.47-3.38,0.47-6.68-4.23-7.97c1.15-0.37,1.75-0.57,3.85-1.25
	c-5.13,0.26-4.18-4.22-7.41-5.69c1.48,4.65,0.88,8.91-0.06,13.06c-0.95,4.19-0.48,8.24,0.7,12.17c1.03,3.43,1.14,6.75,0.49,10.18
	c2.02,1.31,0.77,7.5,6,4.01C1717.12,530.17,1717.63,529.11,1717.24,527.6z M1707,446.08c-0.64,0.93-1.93,1.94-1.83,2.78
	c1.23,9.83-0.33,19.86,2.3,29.59c0.72,2.66,2.59,1.42,4,1.55c1.95,0.18,2.61-1.12,2.5-2.87c-0.2-3.23-0.16-6.52-0.75-9.68
	c-0.8-4.27,1.78-9.18-2.34-12.82C1714.43,449.59,1711.38,447.54,1707,446.08L1707,446.08z M1605.9,983.62
	c-7.82-4.11-14.97-2.31-22.11-0.45C1590.87,983.78,1597.95,987.58,1605.9,983.62z M1717.8,578.33c-3.53-10.28-3.08-20.74-1.81-31.27
	c-0.9,0.49-1.7,1.05-1.71,2.22c-0.04,6.9-0.77,13.77,0.35,20.71c0.63,3.9,2.79,7.99,0.36,12.07
	C1717.28,581.82,1718.5,580.37,1717.8,578.33z M1641.07,41.11c-0.22,1.25-0.12,2.94,1.91,2.68c1.62-0.21,2.05-1.6,1.97-3.01
	c-0.2-3.65-1.73-6.51-6.12-8.91C1639.69,35.59,1641.58,38.12,1641.07,41.11z M1628.3,982.87c2.93,3.69,5.91,4.14,12.54,1.59
	C1636.22,983.1,1632.66,980.73,1628.3,982.87z M1710.94,481.2c-1.8-0.55-3.58,0.05-3.43,2.73c0.13,2.31,1.26,3.14,3.44,3.15
	c1.89,0.01,3.17-0.63,3.71-2.97C1713.56,483.2,1712.42,481.66,1710.94,481.2z M1695.83,360.16c0.26-1.78-1.21-2.13-2.65-2.03
	c-1.34,0.09-3.07,0.3-2.35,2.16c0.54,1.39-0.15,4.06,3.56,3.71C1694.78,363.05,1695.62,361.65,1695.83,360.16z M1608.88,983.91
	c1.82,0.87,3.14,0.46,5.03-0.92C1611.55,982.08,1610.2,982.36,1608.88,983.91z M1707,446.08c-0.39-1.16,0.9-2.46-0.42-3.81
	C1705.06,443.86,1703.94,445.14,1707,446.08L1707,446.08z M1695.82,390.62c-0.2,0.38-0.58,0.78-0.54,1.12
	c0.04,0.3,0.58,0.53,0.89,0.79c0.23-0.35,0.47-0.7,0.81-1.22C1696.52,391.03,1696.17,390.82,1695.82,390.62z M115.15,23.57
	c-0.41-0.13-0.84-0.4-1.24-0.37c-0.37,0.03-0.72,0.37-1.07,0.57c0.26,0.3,0.52,0.6,0.93,1.06C114.3,24.34,114.72,23.96,115.15,23.57
	z M1704.2,521.23c-0.02,0.22-0.06,0.43-0.04,0.64c0,0.04,0.32,0.11,0.42,0.05c0.19-0.12,0.32-0.32,0.51-0.52
	C1704.75,521.34,1704.47,521.29,1704.2,521.23z M1709,567.07c-1.01,0.49-1.32,2.11-3.26,0.91c-2.39-1.48-2.42,0.29-1.74,2.08
	C1706.13,569.84,1709.12,571.05,1709,567.07z M1611.8,34.54c-0.04,0.04,0.04,0.2,0.07,0.31c0.12-0.04,0.26-0.04,0.35-0.12
	c0.04-0.03-0.04-0.2-0.07-0.31C1612.03,34.46,1611.89,34.47,1611.8,34.54z"/>
</svg>
